# Blender v3.1.2 OBJ File: 'base_M2.blend'
# www.blender.org
mtllib base_M2.mtl
o Cube_Cube.002
v -0.008000 -0.010000 0.023500
v 0.013063 0.010000 0.015557
v -0.005500 0.010000 0.021052
v 0.000000 0.005620 -0.002798
v 0.013063 0.010000 -0.015557
v -0.008000 -0.010000 -0.023500
v -0.005500 0.010000 -0.021052
v 0.000557 0.005620 -0.002744
v 0.024000 -0.010000 0.023500
v 0.021500 0.010000 0.021052
v 0.001093 0.005620 -0.002585
v 0.024000 -0.010000 -0.023500
v 0.021500 0.010000 -0.021052
v 0.001587 0.005620 -0.002326
v 0.002020 0.005620 -0.001978
v 0.002376 0.005620 -0.001554
v 0.002640 0.005620 -0.001071
v 0.002802 0.005620 -0.000546
v 0.002857 0.005620 0.000000
v 0.002802 0.005620 0.000546
v 0.002640 0.005620 0.001071
v 0.002376 0.005620 0.001554
v 0.002020 0.005620 0.001978
v 0.001587 0.005620 0.002326
v 0.001093 0.005620 0.002585
v 0.000557 0.005620 0.002744
v -0.000000 0.005620 0.002798
v -0.000557 0.005620 0.002744
v -0.001093 0.005620 0.002585
v -0.001587 0.005620 0.002326
v -0.002020 0.005620 0.001978
v -0.002376 0.005620 0.001554
v -0.002640 0.005620 0.001071
v -0.002802 0.005620 0.000546
v -0.002857 0.005620 -0.000000
v -0.002802 0.005620 -0.000546
v -0.002640 0.005620 -0.001071
v -0.002376 0.005620 -0.001554
v -0.002020 0.005620 -0.001978
v -0.001587 0.005620 -0.002326
v -0.001093 0.005620 -0.002585
v -0.000557 0.005620 -0.002744
v -0.001587 -0.010000 -0.002326
v -0.000557 -0.010000 -0.002744
v -0.001093 -0.010000 -0.002585
v 0.000557 -0.010000 -0.002744
v 0.001587 -0.010000 -0.002326
v 0.001093 -0.010000 -0.002585
v 0.002020 -0.010000 0.001978
v 0.000000 -0.010000 -0.002798
v 0.002376 -0.010000 0.001554
v 0.002376 -0.010000 -0.001554
v 0.002857 -0.010000 0.000000
v 0.002802 -0.010000 0.000546
v 0.002802 -0.010000 -0.000546
v 0.002640 -0.010000 0.001071
v 0.002640 -0.010000 -0.001071
v 0.002020 -0.010000 -0.001978
v -0.002857 -0.010000 -0.000000
v -0.002802 -0.010000 0.000546
v -0.002802 -0.010000 -0.000546
v -0.002376 -0.010000 0.001554
v -0.002376 -0.010000 -0.001554
v -0.002640 -0.010000 0.001071
v -0.002640 -0.010000 -0.001071
v -0.002020 -0.010000 -0.001978
v -0.000557 -0.010000 0.002744
v -0.001093 -0.010000 0.002585
v -0.001587 -0.010000 0.002326
v 0.000557 -0.010000 0.002744
v 0.001587 -0.010000 0.002326
v -0.000000 -0.010000 0.002798
v 0.001093 -0.010000 0.002585
v -0.002020 -0.010000 0.001978
v -0.008000 0.010000 0.023500
v -0.008000 0.010000 -0.023500
v 0.024000 0.010000 -0.023500
v 0.024000 0.010000 0.023500
v -0.008000 0.052000 0.023500
v -0.008000 0.052000 -0.023500
v 0.024000 0.052000 -0.023500
v 0.024000 0.052000 0.023500
v -0.005500 0.052000 0.021052
v -0.005500 0.052000 -0.021052
v 0.021500 0.052000 -0.021052
v 0.021500 0.052000 0.021052
v 0.024000 0.010000 0.015557
v 0.024000 0.010000 0.015557
v 0.024000 0.010000 -0.015557
v 0.024000 0.010000 -0.015557
v 0.013063 0.010000 -0.015557
v 0.013063 0.010000 0.015557
v 0.021500 0.010000 -0.015557
v 0.021500 0.010000 0.015557
v 0.021500 0.052000 0.015557
v 0.021500 0.052000 -0.015557
v 0.024000 0.052000 0.015557
v 0.024000 0.052000 -0.015557
vt 0.375000 0.000000
vt 0.625000 0.000000
vt 0.625000 0.250000
vt 0.375000 0.250000
vt 0.625000 0.500000
vt 0.375000 0.500000
vt 0.625000 0.750000
vt 0.375000 0.750000
vt 0.625000 0.542248
vt 0.625000 0.542248
vt 0.625000 0.707752
vt 0.625000 0.707752
vt 0.625000 1.000000
vt 0.375000 1.000000
vt 0.125000 0.750000
vt 0.247097 0.639595
vt 0.250000 0.639881
vt 0.252903 0.610405
vt 0.250000 0.610119
vt 0.861979 0.736979
vt 0.638021 0.736979
vt 0.638021 0.707752
vt 0.638021 0.542248
vt 0.638021 0.513021
vt 0.861979 0.513021
vt 0.968750 0.609492
vt 0.968750 1.000000
vt 1.000000 1.000000
vt 1.000000 0.609492
vt 0.937500 0.609492
vt 0.937500 1.000000
vt 0.906250 0.609492
vt 0.906250 1.000000
vt 0.875000 0.609492
vt 0.875000 1.000000
vt 0.843750 0.609492
vt 0.843750 1.000000
vt 0.812500 0.609492
vt 0.812500 1.000000
vt 0.781250 0.609492
vt 0.781250 1.000000
vt 0.750000 0.609492
vt 0.750000 1.000000
vt 0.718750 0.609492
vt 0.718750 1.000000
vt 0.687500 0.609492
vt 0.687500 1.000000
vt 0.656250 0.609492
vt 0.656250 1.000000
vt 0.625000 0.609492
vt 0.625000 1.000000
vt 0.593750 0.609492
vt 0.593750 1.000000
vt 0.562500 0.609492
vt 0.562500 1.000000
vt 0.531250 0.609492
vt 0.531250 1.000000
vt 0.500000 0.609492
vt 0.500000 1.000000
vt 0.468750 0.609492
vt 0.468750 1.000000
vt 0.437500 0.609492
vt 0.437500 1.000000
vt 0.406250 0.609492
vt 0.406250 1.000000
vt 0.375000 0.609492
vt 0.375000 1.000000
vt 0.343750 0.609492
vt 0.343750 1.000000
vt 0.312500 0.609492
vt 0.312500 1.000000
vt 0.281250 0.609492
vt 0.281250 1.000000
vt 0.250000 0.609492
vt 0.250000 1.000000
vt 0.218750 0.609492
vt 0.218750 1.000000
vt 0.187500 0.609492
vt 0.187500 1.000000
vt 0.156250 0.609492
vt 0.156250 1.000000
vt 0.125000 0.609492
vt 0.125000 1.000000
vt 0.093750 0.609492
vt 0.093750 1.000000
vt 0.062500 0.609492
vt 0.062500 1.000000
vt 0.203178 0.485388
vt 0.250000 0.490000
vt 0.296822 0.485388
vt 0.341844 0.471731
vt 0.383337 0.449553
vt 0.419706 0.419706
vt 0.449553 0.383337
vt 0.471731 0.341844
vt 0.485388 0.296822
vt 0.490000 0.250000
vt 0.485388 0.203178
vt 0.471731 0.158156
vt 0.449553 0.116663
vt 0.419706 0.080294
vt 0.383337 0.050447
vt 0.341844 0.028269
vt 0.296822 0.014612
vt 0.250000 0.010000
vt 0.203178 0.014612
vt 0.158156 0.028269
vt 0.116663 0.050447
vt 0.080294 0.080294
vt 0.050447 0.116663
vt 0.028269 0.158156
vt 0.014612 0.203178
vt 0.010000 0.250000
vt 0.014612 0.296822
vt 0.028269 0.341844
vt 0.050447 0.383337
vt 0.080294 0.419706
vt 0.116663 0.449553
vt 0.158156 0.471731
vt 0.031250 0.609492
vt 0.031250 1.000000
vt 0.000000 0.609492
vt 0.000000 1.000000
vt 0.262373 0.616732
vt 0.260522 0.614478
vt 0.125000 0.500000
vt 0.235119 0.625000
vt 0.239478 0.614478
vt 0.237627 0.616733
vt 0.236252 0.619305
vt 0.263748 0.619305
vt 0.264881 0.625000
vt 0.264595 0.622097
vt 0.235405 0.622097
vt 0.235405 0.627903
vt 0.264595 0.627903
vt 0.263748 0.630695
vt 0.236252 0.630695
vt 0.237627 0.633267
vt 0.262373 0.633267
vt 0.260522 0.635522
vt 0.239478 0.635522
vt 0.241733 0.637373
vt 0.258267 0.637373
vt 0.255695 0.638748
vt 0.252903 0.639595
vt 0.244305 0.638748
vt 0.241733 0.612627
vt 0.244305 0.611252
vt 0.258267 0.612627
vt 0.255695 0.611252
vt 0.247097 0.610405
vt 0.625000 0.000000
vt 0.625000 0.250000
vt 0.638021 0.513021
vt 0.861979 0.513021
vt 0.638021 0.736979
vt 0.638021 0.707752
vt 0.638021 0.542248
vt 0.625000 0.500000
vt 0.861979 0.736979
vt 0.875000 0.500000
vt 0.875000 0.750000
vt 0.625000 0.750000
vt 0.625000 0.707752
vt 0.625000 0.542248
vt 0.625000 1.000000
vn -1.0000 0.0000 0.0000
vn 0.0000 0.0000 -1.0000
vn 1.0000 0.0000 0.0000
vn 0.0000 0.0000 1.0000
vn 0.0000 -1.0000 -0.0000
vn 0.0000 1.0000 0.0000
vn -0.0960 0.0000 0.9954
vn -0.2847 0.0000 0.9586
vn -0.4637 0.0000 0.8860
vn -0.6264 0.0000 0.7795
vn -0.7664 0.0000 0.6424
vn -0.8777 0.0000 0.4791
vn -0.9552 0.0000 0.2959
vn -0.9950 0.0000 0.1001
vn -0.9950 0.0000 -0.1001
vn -0.9552 0.0000 -0.2959
vn -0.8777 0.0000 -0.4791
vn -0.7664 0.0000 -0.6424
vn -0.6264 0.0000 -0.7795
vn -0.4637 0.0000 -0.8860
vn -0.2847 0.0000 -0.9586
vn -0.0960 0.0000 -0.9954
vn 0.0960 0.0000 -0.9954
vn 0.2847 0.0000 -0.9586
vn 0.4637 0.0000 -0.8860
vn 0.6264 0.0000 -0.7795
vn 0.7664 0.0000 -0.6424
vn 0.8777 0.0000 -0.4791
vn 0.9552 0.0000 -0.2959
vn 0.9950 0.0000 -0.1001
vn 0.9950 0.0000 0.1001
vn 0.9552 0.0000 0.2959
vn 0.8777 0.0000 0.4791
vn 0.7664 0.0000 0.6424
vn 0.6264 0.0000 0.7795
vn 0.4637 0.0000 0.8860
vn 0.2847 0.0000 0.9586
vn 0.0960 0.0000 0.9954
usemtl None
s off
f 1/1/1 75/2/1 76/3/1 6/4/1
f 6/4/2 76/3/2 77/5/2 12/6/2
f 78/7/3 9/8/3 12/6/3 77/5/3 90/9/3 89/10/3 88/11/3 87/12/3
f 9/8/4 78/7/4 75/13/4 1/14/4
f 1/15/5 67/16/5 72/17/5
f 12/6/5 46/18/5 50/19/5
f 3/20/6 10/21/6 94/22/6 93/23/6 13/24/6 7/25/6
f 46/26/7 8/27/7 4/28/7 50/29/7
f 48/30/8 11/31/8 8/27/8 46/26/8
f 47/32/9 14/33/9 11/31/9 48/30/9
f 58/34/10 15/35/10 14/33/10 47/32/10
f 52/36/11 16/37/11 15/35/11 58/34/11
f 57/38/12 17/39/12 16/37/12 52/36/12
f 55/40/13 18/41/13 17/39/13 57/38/13
f 53/42/14 19/43/14 18/41/14 55/40/14
f 54/44/15 20/45/15 19/43/15 53/42/15
f 56/46/16 21/47/16 20/45/16 54/44/16
f 51/48/17 22/49/17 21/47/17 56/46/17
f 49/50/18 23/51/18 22/49/18 51/48/18
f 71/52/19 24/53/19 23/51/19 49/50/19
f 73/54/20 25/55/20 24/53/20 71/52/20
f 70/56/21 26/57/21 25/55/21 73/54/21
f 72/58/22 27/59/22 26/57/22 70/56/22
f 67/60/23 28/61/23 27/59/23 72/58/23
f 68/62/24 29/63/24 28/61/24 67/60/24
f 69/64/25 30/65/25 29/63/25 68/62/25
f 74/66/26 31/67/26 30/65/26 69/64/26
f 62/68/27 32/69/27 31/67/27 74/66/27
f 64/70/28 33/71/28 32/69/28 62/68/28
f 60/72/29 34/73/29 33/71/29 64/70/29
f 59/74/30 35/75/30 34/73/30 60/72/30
f 61/76/31 36/77/31 35/75/31 59/74/31
f 65/78/32 37/79/32 36/77/32 61/76/32
f 63/80/33 38/81/33 37/79/33 65/78/33
f 66/82/34 39/83/34 38/81/34 63/80/34
f 43/84/35 40/85/35 39/83/35 66/82/35
f 45/86/36 41/87/36 40/85/36 43/84/36
f 42/88/5 4/89/5 8/90/5 11/91/5 14/92/5 15/93/5 16/94/5 17/95/5 18/96/5 19/97/5 20/98/5 21/99/5 22/100/5 23/101/5 24/102/5 25/103/5 26/104/5 27/105/5 28/106/5 29/107/5 30/108/5 31/109/5 32/110/5 33/111/5 34/112/5 35/113/5 36/114/5 37/115/5 38/116/5 39/117/5 40/118/5 41/119/5
f 44/120/37 42/121/37 41/87/37 45/86/37
f 50/122/38 4/123/38 42/121/38 44/120/38
f 52/124/5 58/125/5 12/6/5
f 1/15/5 6/126/5 59/127/5
f 6/126/5 66/128/5 63/129/5
f 6/126/5 63/129/5 65/130/5
f 52/124/5 12/6/5 57/131/5
f 12/6/5 9/8/5 53/132/5
f 57/131/5 12/6/5 55/133/5
f 55/133/5 12/6/5 53/132/5
f 6/126/5 65/130/5 61/134/5
f 6/126/5 61/134/5 59/127/5
f 1/15/5 59/127/5 60/135/5
f 54/136/5 53/132/5 9/8/5
f 56/137/5 54/136/5 9/8/5
f 1/15/5 60/135/5 64/138/5
f 1/15/5 64/138/5 62/139/5
f 51/140/5 56/137/5 9/8/5
f 49/141/5 51/140/5 9/8/5
f 1/15/5 62/139/5 74/142/5
f 1/15/5 74/142/5 69/143/5
f 49/141/5 9/8/5 71/144/5
f 9/8/5 1/15/5 72/17/5
f 71/144/5 9/8/5 73/145/5
f 73/145/5 9/8/5 70/146/5
f 1/15/5 69/143/5 68/147/5
f 1/15/5 68/147/5 67/16/5
f 70/146/5 9/8/5 72/17/5
f 66/128/5 6/126/5 43/148/5
f 6/126/5 12/6/5 50/19/5
f 43/148/5 6/126/5 45/149/5
f 12/6/5 58/125/5 47/150/5
f 12/6/5 47/150/5 48/151/5
f 45/149/5 6/126/5 44/152/5
f 44/152/5 6/126/5 50/19/5
f 12/6/5 48/151/5 46/18/5
f 76/3/1 75/2/1 79/153/1 80/154/1
f 7/25/4 13/24/4 85/155/4 84/156/4
f 94/22/1 10/21/1 86/157/1 95/158/1
f 96/159/1 85/155/1 13/24/1 93/23/1
f 77/5/2 76/3/2 80/154/2 81/160/2
f 83/161/6 84/156/6 80/162/6 79/163/6
f 84/156/6 85/155/6 81/160/6 80/162/6
f 86/157/6 83/161/6 79/163/6 82/164/6
f 95/158/6 86/157/6 82/164/6 97/165/6
f 98/166/6 81/160/6 85/155/6 96/159/6
f 77/5/3 81/160/3 98/166/3 90/9/3
f 82/164/3 78/7/3 87/12/3 97/165/3
f 75/13/4 78/7/4 82/164/4 79/167/4
f 10/21/2 3/20/2 83/161/2 86/157/2
f 3/20/3 7/25/3 84/156/3 83/161/3
f 90/9/4 98/166/4 96/159/4 93/23/4
f 87/12/6 88/11/6 89/10/6 90/9/6 93/23/6 94/22/6
f 97/165/2 87/12/2 94/22/2 95/158/2
l 5 91
l 2 92
